<svg id="Layer_1" data-name="Layer 1" xmlns="http://www.w3.org/2000/svg" viewBox="0 0 554.2 601.16"><defs><style>.cls-1{font-size:500px;font-family:BookmanOldStyle-Bold, Bookman Old Style;font-weight:700;}.cls-2{fill:#fbb03b;}.cls-3{fill:#fbc83b;}</style></defs><title>new-logo</title><text class="cls-1" transform="translate(101.74 420.25)">S</text><path class="cls-2" d="M557.65,191.53q.2-51.79-20.61-87.37T484.79,51.44Q453.35,34.3,421.48,34.17A133,133,0,0,0,388.62,38a.1.1,0,0,0-.07.12l2.08,8.28s.69,2.77.74,2.76A110.13,110.13,0,0,1,420,45.4q37.8.14,67.75,19.81t46.13,53.43q16.18,33.75,16,73.59l0,11.49a.09.09,0,0,1-.1.1h-3.51a.1.1,0,0,1-.1-.1q-1.62-69.48-36.67-104.18T433.59,64.65a112.72,112.72,0,0,0-36.7,6c-.05,0,4.54,17.64,4.55,17.69l4.22,16.56a18.84,18.84,0,0,0,1.73-.81A75.58,75.58,0,0,1,445,94.39q26.31.1,47.2,13.94T525,147q11.94,24.86,11.83,56-.15,37.27-22.92,87.52a.13.13,0,0,1-.07.06l-85.59,22.46a.1.1,0,0,0-.07.1l0,4.53a.11.11,0,0,0,.1.1l126.56-1.69a.1.1,0,0,0,.1-.11c-.48-3.35-.89-6.51-1.25-9.49s-.59-7.07-.69-12.14-.28-10.51-.5-16.3q0-10.15,2.55-36.58T557.65,191.53Z" transform="translate(-3.45 72.23)"/><path class="cls-2" d="M366,133.58l-20.57-30.07-.22-.25q-14.67,15.6-36.5,46.59Q285,183.44,261.75,216.32t-36.31,45.5q-22.69,22-44.22,30.26t-47.85,8.15q-30.39-.12-58.86-18.52T28.75,228.65Q11.45,194,13.11,149.81h4.08q.21,38.4,16.61,66.9t42.46,43.63q26.07,15.12,54.24,15.23,41.15.17,74.62-32.31a240,240,0,0,0,26.62-30.51q14-18.6,35.77-49.67t33.72-46.42A377.7,377.7,0,0,1,329.1,85.21l-9.49-7.81q-26.06,25.74-64.5,81.12-39.51,56.89-64.8,81.07t-62,24q-17.79-.06-36.48-7.74a104.72,104.72,0,0,1-33.46-22q-14.77-14.37-24.32-37T24.61,147q-.3-20.28,5.74-48T46.1,50.69L137.39,23.5l0-5.07L6.92,23.73c0,1,.23,4.11.7,9.42s.83,9.24,1.07,11.78S9,51,9,55.62Q9,70.47,6.25,102.15t-2.8,53.78q-.24,62.65,23.7,102.24t58.54,56.37q34.59,16.79,67.21,16.91,57.81.23,102.09-42.71,22.68-22,47.29-58.69t46.6-68.64c7.69-11.18,9.26-19.15,17.11-27.83Z" transform="translate(-3.45 72.23)"/><path class="cls-2" d="M366.07,135" transform="translate(-3.45 72.23)"/><polyline class="cls-3" points="128.95 95.31 90.42 104.32 28.88 122.02 29.78 117.86 83.72 101.77"/><polyline class="cls-3" points="22.66 141.85 15.28 182.87 14.09 211.61 10.2 213.79 11.64 176.73"/></svg>